<svg version="1.2" xmlns="http://www.w3.org/2000/svg" viewBox="0 0 503 503" width="503" height="503">
	<style>
		.s0 { fill: none;stroke: #ffffff;stroke-width: 75 } 
		.s1 { fill: #ffffff } 
	</style>
	<g id="layer1">
		<path id="rect1" class="s0" d="m155.51 42.13h188.98c62.81 0 113.38 50.57 113.38 113.38v188.98c0 62.81-50.57 113.38-113.38 113.38h-188.98c-62.81 0-113.38-50.57-113.38-113.38v-188.98c0-62.81 50.57-113.38 113.38-113.38z"/>
		<path id="text2" class="s1" d="m250 117.72c-72.22 0-123.81 64.11-123.81 131.91 0 68.54 51.59 132.65 123.81 132.65 42.01 0 84.75-18.42 106.12-56.74 1.48-2.95 3.69-6.63 3.69-11.79 0-12.53-10.32-22.85-23.59-22.85-7.37 0-14 4.42-19.16 11.06-16.21 22.84-38.32 33.9-67.06 33.9-36.85 0-64.85-27.27-73.7-62.65h173.93c12.52 0 23.58-10.31 23.58-23.58 0-67.8-51.59-131.91-123.81-131.91zm-73.7 109.07c9.58-33.9 37.59-62.65 73.7-62.65 36.85 0 64.85 28.75 73.7 62.65z"/>
	</g>
</svg>